<?xml version="1.0" encoding="UTF-8"?>
<!DOCTYPE svg PUBLIC "-//W3C//DTD SVG 1.1//EN" "http://www.w3.org/Graphics/SVG/1.1/DTD/svg11.dtd">
<svg xmlns="http://www.w3.org/2000/svg" version="1.1" width="603px" height="202px" style="shape-rendering:geometricPrecision; text-rendering:geometricPrecision; image-rendering:optimizeQuality; fill-rule:evenodd; clip-rule:evenodd" xmlns:xlink="http://www.w3.org/1999/xlink">
<g><path style="opacity:1" fill="#fdfdfd" d="M -0.5,-0.5 C 200.5,-0.5 401.5,-0.5 602.5,-0.5C 602.5,66.8333 602.5,134.167 602.5,201.5C 401.5,201.5 200.5,201.5 -0.5,201.5C -0.5,134.167 -0.5,66.8333 -0.5,-0.5 Z"/></g>
<g><path style="opacity:1" fill="#272727" d="M 104.5,19.5 C 106.924,19.1924 109.257,19.5258 111.5,20.5C 91.182,60.4688 70.8487,100.469 50.5,140.5C 47.5185,137.217 45.0185,133.551 43,129.5C 27.9853,91.5338 36.152,59.7005 67.5,34C 78.6444,25.7474 90.9777,20.9141 104.5,19.5 Z"/></g>
<g><path style="opacity:1" fill="#292929" d="M 189.5,79.5 C 189.565,82.4282 190.232,85.0948 191.5,87.5C 191.743,97.9786 190.743,108.312 188.5,118.5C 186.043,125.672 182.709,132.506 178.5,139C 177.668,139.688 177.002,139.521 176.5,138.5C 160.802,105.016 145.135,71.6829 129.5,38.5C 109,78.8333 88.5,119.167 68,159.5C 64.6093,157.611 62.1093,154.945 60.5,151.5C 82.114,107.772 104.114,64.2717 126.5,21C 150.037,25.0272 168.204,37.1939 181,57.5C 184.726,64.5157 187.56,71.8491 189.5,79.5 Z"/></g>
<g><path style="opacity:1" fill="#303030" d="M 241.5,58.5 C 244.518,58.3354 247.518,58.502 250.5,59C 251.333,59.8333 252.167,60.6667 253,61.5C 258.709,71.0439 264.209,80.7105 269.5,90.5C 264.338,92.4668 260.671,90.9668 258.5,86C 250.5,85.3333 242.5,85.3333 234.5,86C 232.581,91.3896 228.915,92.8896 223.5,90.5C 229.512,79.8061 235.512,69.1394 241.5,58.5 Z"/></g>
<g><path style="opacity:1" fill="#2a2a2a" d="M 273.5,58.5 C 284.838,58.3335 296.172,58.5001 307.5,59C 313.507,63.2551 314.174,68.4218 309.5,74.5C 313.752,80.3081 313.418,85.8081 308.5,91C 296.838,91.4999 285.171,91.6665 273.5,91.5C 273.5,80.5 273.5,69.5 273.5,58.5 Z"/></g>
<g><path style="opacity:1" fill="#2d2d2d" d="M 324.5,58.5 C 334.5,58.5 344.5,58.5 354.5,58.5C 354.5,60.5 354.5,62.5 354.5,64.5C 345.827,64.3336 337.16,64.5002 328.5,65C 327.584,65.3742 326.75,65.8742 326,66.5C 325.333,72.1667 325.333,77.8333 326,83.5C 326.75,84.1258 327.584,84.6258 328.5,85C 337.16,85.4998 345.827,85.6664 354.5,85.5C 354.5,87.5 354.5,89.5 354.5,91.5C 344.494,91.6665 334.494,91.4998 324.5,91C 322.376,89.8783 320.543,88.3783 319,86.5C 317.032,78.5254 317.032,70.5254 319,62.5C 320.812,61.0229 322.645,59.6896 324.5,58.5 Z"/></g>
<g><path style="opacity:1" fill="#2f2f2f" d="M 391.5,58.5 C 394.518,58.3354 397.518,58.502 400.5,59C 407.652,68.7993 413.652,79.2993 418.5,90.5C 412.724,92.8912 409.057,91.0579 407.5,85C 399.833,84.3333 392.167,84.3333 384.5,85C 383.373,86.7533 382.373,88.5866 381.5,90.5C 378.833,91.8333 376.167,91.8333 373.5,90.5C 379.005,79.4823 385.005,68.8156 391.5,58.5 Z"/></g>
<g><path style="opacity:1" fill="#292929" d="M 461.5,58.5 C 461.78,67.8864 461.447,77.2197 460.5,86.5C 459.229,88.9339 457.229,90.4339 454.5,91C 444.733,91.9468 435.066,91.6134 425.5,90C 424.213,88.5905 423.046,87.0905 422,85.5C 421.5,76.5062 421.334,67.5062 421.5,58.5C 423.833,58.5 426.167,58.5 428.5,58.5C 428.169,66.8599 428.502,75.1932 429.5,83.5C 430.308,83.8076 430.975,84.3076 431.5,85C 438.167,85.6667 444.833,85.6667 451.5,85C 452.646,84.3551 453.646,83.5217 454.5,82.5C 455.498,74.5277 455.831,66.5277 455.5,58.5C 457.5,58.5 459.5,58.5 461.5,58.5 Z"/></g>
<g><path style="opacity:1" fill="#707070" d="M 461.5,58.5 C 462.657,67.3238 462.824,76.3238 462,85.5C 461.617,86.056 461.117,86.3893 460.5,86.5C 461.447,77.2197 461.78,67.8864 461.5,58.5 Z"/></g>
<g><path style="opacity:1" fill="#2a2a2a" d="M 506.5,64.5 C 501.167,64.5 495.833,64.5 490.5,64.5C 490.5,73.5 490.5,82.5 490.5,91.5C 488.167,91.5 485.833,91.5 483.5,91.5C 483.5,82.5 483.5,73.5 483.5,64.5C 478.167,64.5 472.833,64.5 467.5,64.5C 466.539,62.7354 466.205,60.7354 466.5,58.5C 479.833,58.5 493.167,58.5 506.5,58.5C 506.5,60.5 506.5,62.5 506.5,64.5 Z"/></g>
<g><path style="opacity:1" fill="#2c2c2c" d="M 516.5,58.5 C 525.839,58.3335 535.173,58.5002 544.5,59C 551.912,61.4718 554.579,66.6385 552.5,74.5C 553.609,81.6245 551.275,87.1245 545.5,91C 535.5,91.6667 525.5,91.6667 515.5,91C 513.19,89.3626 511.69,87.196 511,84.5C 510.333,77.5 510.333,70.5 511,63.5C 512.704,61.6266 514.537,59.9599 516.5,58.5 Z"/></g>
<g><path style="opacity:1" fill="#bbbbbb" d="M 303.5,65.5 C 296.167,65.5 288.833,65.5 281.5,65.5C 281.5,67.5 281.5,69.5 281.5,71.5C 288.833,71.5 296.167,71.5 303.5,71.5C 296.018,72.492 288.352,72.8254 280.5,72.5C 280.5,69.8333 280.5,67.1667 280.5,64.5C 288.352,64.1746 296.018,64.508 303.5,65.5 Z"/></g>
<g><path style="opacity:1" fill="#fdfdfd" d="M 303.5,65.5 C 304.833,67.5 304.833,69.5 303.5,71.5C 296.167,71.5 288.833,71.5 281.5,71.5C 281.5,69.5 281.5,67.5 281.5,65.5C 288.833,65.5 296.167,65.5 303.5,65.5 Z"/></g>
<g><path style="opacity:1" fill="#9c9c9c" d="M 467.5,64.5 C 472.833,64.5 478.167,64.5 483.5,64.5C 483.5,73.5 483.5,82.5 483.5,91.5C 482.507,83.0161 482.174,74.3494 482.5,65.5C 477.305,65.8205 472.305,65.4872 467.5,64.5 Z"/></g>
<g><path style="opacity:1" fill="#b7b7b7" d="M 506.5,64.5 C 501.695,65.4872 496.695,65.8205 491.5,65.5C 491.826,74.3494 491.493,83.0161 490.5,91.5C 490.5,82.5 490.5,73.5 490.5,64.5C 495.833,64.5 501.167,64.5 506.5,64.5 Z"/></g>
<g><path style="opacity:1" fill="#f5f5f5" d="M 520.5,64.5 C 527.508,64.3337 534.508,64.5004 541.5,65C 542.025,65.6924 542.692,66.1924 543.5,66.5C 544.663,72.1375 544.83,77.8041 544,83.5C 539.688,85.0461 535.188,85.7127 530.5,85.5C 526.384,85.5972 522.384,85.0972 518.5,84C 517.359,78.2496 517.193,72.4163 518,66.5C 518.995,65.9341 519.828,65.2674 520.5,64.5 Z"/></g>
<g><path style="opacity:1" fill="#f0f0f0" d="M 245.5,65.5 C 247.017,65.5106 248.184,66.1772 249,67.5C 250.631,71.2892 252.464,74.9559 254.5,78.5C 249.167,79.8333 243.833,79.8333 238.5,78.5C 241.1,74.299 243.434,69.9656 245.5,65.5 Z"/></g>
<g><path style="opacity:1" fill="#eaeaea" d="M 394.5,65.5 C 396.91,65.9209 398.743,67.2542 400,69.5C 401.809,72.7779 403.309,76.1112 404.5,79.5C 399.125,79.8282 393.792,79.4948 388.5,78.5C 390.785,74.2647 392.785,69.9314 394.5,65.5 Z"/></g>
<g><path style="opacity:1" fill="#cb0c06" d="M 145.5,110.5 C 133.5,111.833 121.5,111.833 109.5,110.5C 115.537,98.0948 121.87,85.7615 128.5,73.5C 134.745,85.5696 140.412,97.903 145.5,110.5 Z"/></g>
<g><path style="opacity:1" fill="#fafafa" d="M 281.5,77.5 C 288.841,77.3337 296.174,77.5003 303.5,78C 304.624,78.8388 305.291,80.0055 305.5,81.5C 305.36,83.0296 304.693,84.0296 303.5,84.5C 296.167,84.5 288.833,84.5 281.5,84.5C 281.5,82.1667 281.5,79.8333 281.5,77.5 Z"/></g>
<g><path style="opacity:1" fill="#b9b9b9" d="M 281.5,77.5 C 281.5,79.8333 281.5,82.1667 281.5,84.5C 288.833,84.5 296.167,84.5 303.5,84.5C 296.018,85.492 288.352,85.8254 280.5,85.5C 280.194,82.6146 280.527,79.9479 281.5,77.5 Z"/></g>
<g><path style="opacity:1" fill="#a5a5a5" d="M 189.5,79.5 C 191.04,81.8383 191.706,84.5049 191.5,87.5C 190.232,85.0948 189.565,82.4282 189.5,79.5 Z"/></g>
<g><path style="opacity:1" fill="#c5c5c5" d="M 191.5,87.5 C 192.641,95.6916 192.474,104.025 191,112.5C 190.434,114.723 189.6,116.723 188.5,118.5C 190.743,108.312 191.743,97.9786 191.5,87.5 Z"/></g>
<g><path style="opacity:1" fill="#d74343" d="M 109.5,110.5 C 121.5,111.833 133.5,111.833 145.5,110.5C 146.043,110.56 146.376,110.893 146.5,111.5C 133.833,112.833 121.167,112.833 108.5,111.5C 108.624,110.893 108.957,110.56 109.5,110.5 Z"/></g>
<g><path style="opacity:1" fill="#818181" d="M 255.5,112.5 C 256.833,112.5 258.167,112.5 259.5,112.5C 259.5,114.167 259.5,115.833 259.5,117.5C 262.206,117.575 264.873,117.908 267.5,118.5C 269.838,126.815 266.838,130.482 258.5,129.5C 258.5,131.167 258.5,132.833 258.5,134.5C 257.5,134.5 256.5,134.5 255.5,134.5C 255.5,132.833 255.5,131.167 255.5,129.5C 253.143,129.663 250.81,129.497 248.5,129C 247.209,125.545 247.209,122.045 248.5,118.5C 250.747,117.626 253.08,117.292 255.5,117.5C 255.5,115.833 255.5,114.167 255.5,112.5 Z"/></g>
<g><path style="opacity:1" fill="#868686" d="M 433.5,112.5 C 437.277,113.446 440.944,113.78 444.5,113.5C 441.451,115.466 438.118,115.966 434.5,115C 433.748,114.329 433.414,113.496 433.5,112.5 Z"/></g>
<g><path style="opacity:1" fill="#7d7d7d" d="M 226.5,114.5 C 231.844,114.334 237.177,114.501 242.5,115C 244.949,119.389 245.116,123.889 243,128.5C 237.584,129.639 232.084,129.806 226.5,129C 223.864,124.167 223.864,119.334 226.5,114.5 Z"/></g>
<g><path style="opacity:1" fill="#f7f7f7" d="M 228.5,117.5 C 232.833,117.5 237.167,117.5 241.5,117.5C 241.777,120.448 241.444,123.281 240.5,126C 236.514,126.499 232.514,126.666 228.5,126.5C 228.5,123.5 228.5,120.5 228.5,117.5 Z"/></g>
<g><path style="opacity:1" fill="#7f7f7f" d="M 269.5,117.5 C 270.5,117.5 271.5,117.5 272.5,117.5C 272.183,120.572 272.516,123.572 273.5,126.5C 275.956,123.542 278.622,120.709 281.5,118C 282.833,117.333 284.167,117.333 285.5,118C 286.46,121.73 286.793,125.563 286.5,129.5C 285.5,129.5 284.5,129.5 283.5,129.5C 283.817,126.428 283.484,123.428 282.5,120.5C 279.978,123.188 277.644,126.021 275.5,129C 273.527,129.495 271.527,129.662 269.5,129.5C 269.5,125.5 269.5,121.5 269.5,117.5 Z"/></g>
<g><path style="opacity:1" fill="#7e7e7e" d="M 312.5,117.5 C 314.094,120.061 315.094,123.061 315.5,126.5C 317.956,123.542 320.622,120.709 323.5,118C 325.134,117.506 326.801,117.34 328.5,117.5C 328.5,121.5 328.5,125.5 328.5,129.5C 327.5,129.5 326.5,129.5 325.5,129.5C 325.813,126.753 325.48,124.086 324.5,121.5C 321.827,124.2 319.16,126.867 316.5,129.5C 315.167,129.5 313.833,129.5 312.5,129.5C 312.5,125.5 312.5,121.5 312.5,117.5 Z"/></g>
<g><path style="opacity:1" fill="#7d7d7d" d="M 331.5,117.5 C 336.179,117.334 340.845,117.501 345.5,118C 346.46,121.73 346.793,125.563 346.5,129.5C 341.5,129.5 336.5,129.5 331.5,129.5C 331.244,127.208 331.577,125.041 332.5,123C 346.855,121.692 346.521,120.859 331.5,120.5C 331.5,119.5 331.5,118.5 331.5,117.5 Z"/></g>
<g><path style="opacity:1" fill="#858585" d="M 353.5,117.5 C 357.5,117.5 361.5,117.5 365.5,117.5C 365.5,121.5 365.5,125.5 365.5,129.5C 364.167,129.5 362.833,129.5 361.5,129.5C 361.5,126.5 361.5,123.5 361.5,120.5C 359.5,120.5 357.5,120.5 355.5,120.5C 355.752,123.32 355.252,125.986 354,128.5C 352.186,129.76 350.353,129.76 348.5,128.5C 350.193,127.772 351.693,126.772 353,125.5C 353.497,122.854 353.664,120.187 353.5,117.5 Z"/></g>
<g><path style="opacity:1" fill="#7d7d7d" d="M 367.5,117.5 C 368.833,117.5 370.167,117.5 371.5,117.5C 371.5,118.833 371.5,120.167 371.5,121.5C 375.182,121.335 378.848,121.501 382.5,122C 384.396,123.808 384.896,125.975 384,128.5C 378.593,129.473 373.093,129.807 367.5,129.5C 367.5,125.5 367.5,121.5 367.5,117.5 Z"/></g>
<g><path style="opacity:1" fill="#7e7e7e" d="M 400.5,125.5 C 397.038,124.518 393.371,124.185 389.5,124.5C 389.5,126.167 389.5,127.833 389.5,129.5C 388.5,129.5 387.5,129.5 386.5,129.5C 386.5,125.5 386.5,121.5 386.5,117.5C 387.5,117.5 388.5,117.5 389.5,117.5C 389.5,119.167 389.5,120.833 389.5,122.5C 393.167,122.5 396.833,122.5 400.5,122.5C 400.5,120.833 400.5,119.167 400.5,117.5C 401.5,117.5 402.5,117.5 403.5,117.5C 403.5,121.5 403.5,125.5 403.5,129.5C 402.5,129.5 401.5,129.5 400.5,129.5C 400.5,128.167 400.5,126.833 400.5,125.5 Z"/></g>
<g><path style="opacity:1" fill="#7a7a7a" d="M 406.5,117.5 C 407.5,117.5 408.5,117.5 409.5,117.5C 409.5,118.833 409.5,120.167 409.5,121.5C 413.514,121.334 417.514,121.501 421.5,122C 422.591,124.064 422.758,126.231 422,128.5C 416.928,129.471 411.762,129.805 406.5,129.5C 406.5,125.5 406.5,121.5 406.5,117.5 Z"/></g>
<g><path style="opacity:1" fill="#aaaaaa" d="M 425.5,117.5 C 424.911,121.971 425.577,125.971 427.5,129.5C 426.791,130.404 425.791,130.737 424.5,130.5C 424.182,125.968 424.515,121.634 425.5,117.5 Z"/></g>
<g><path style="opacity:1" fill="#727372" d="M 425.5,117.5 C 427.423,121.029 428.089,125.029 427.5,129.5C 425.577,125.971 424.911,121.971 425.5,117.5 Z"/></g>
<g><path style="opacity:1" fill="#828282" d="M 430.5,117.5 C 431.833,117.5 433.167,117.5 434.5,117.5C 434.187,120.247 434.52,122.914 435.5,125.5C 438.252,120.714 442.252,118.047 447.5,117.5C 447.5,121.5 447.5,125.5 447.5,129.5C 446.5,129.5 445.5,129.5 444.5,129.5C 444.813,126.753 444.48,124.086 443.5,121.5C 440.644,123.522 438.311,126.022 436.5,129C 434.527,129.495 432.527,129.662 430.5,129.5C 430.5,125.5 430.5,121.5 430.5,117.5 Z"/></g>
<g><path style="opacity:1" fill="#7d7d7d" d="M 474.5,118.5 C 474.5,121.5 474.5,124.5 474.5,127.5C 475.5,127.5 476.5,127.5 477.5,127.5C 477.799,129.604 477.466,131.604 476.5,133.5C 475.571,132.311 475.238,130.978 475.5,129.5C 470.167,129.5 464.833,129.5 459.5,129.5C 459.843,131.483 459.176,132.817 457.5,133.5C 457.5,131.5 457.5,129.5 457.5,127.5C 458.822,127.67 459.989,127.337 461,126.5C 461.218,123.574 461.718,120.74 462.5,118C 466.689,117.188 470.689,117.355 474.5,118.5 Z"/></g>
<g><path style="opacity:1" fill="#838383" d="M 479.5,117.5 C 480.833,117.5 482.167,117.5 483.5,117.5C 483.187,120.247 483.52,122.914 484.5,125.5C 487.252,120.714 491.252,118.047 496.5,117.5C 496.5,121.5 496.5,125.5 496.5,129.5C 495.5,129.5 494.5,129.5 493.5,129.5C 493.813,126.753 493.48,124.086 492.5,121.5C 489.644,123.522 487.311,126.022 485.5,129C 483.288,129.789 481.288,129.622 479.5,128.5C 479.5,124.833 479.5,121.167 479.5,117.5 Z"/></g>
<g><path style="opacity:1" fill="#858585" d="M 503.5,117.5 C 507.182,117.335 510.848,117.501 514.5,118C 515.46,121.73 515.793,125.563 515.5,129.5C 514.167,129.5 512.833,129.5 511.5,129.5C 511.5,126.5 511.5,123.5 511.5,120.5C 509.5,120.5 507.5,120.5 505.5,120.5C 505.752,123.32 505.252,125.986 504,128.5C 502.186,129.76 500.353,129.76 498.5,128.5C 500.193,127.772 501.693,126.772 503,125.5C 503.497,122.854 503.664,120.187 503.5,117.5 Z"/></g>
<g><path style="opacity:1" fill="#7a7a7a" d="M 519.5,117.5 C 523.514,117.334 527.514,117.501 531.5,118C 533.25,119.754 533.917,121.921 533.5,124.5C 516.597,124.451 516.264,125.784 532.5,128.5C 528.205,129.661 523.871,129.828 519.5,129C 518.28,127.475 517.613,125.641 517.5,123.5C 517.676,121.215 518.343,119.215 519.5,117.5 Z"/></g>
<g><path style="opacity:1" fill="#7e7e7e" d="M 550.5,129.5 C 546.5,129.5 542.5,129.5 538.5,129.5C 538.785,131.288 538.452,132.955 537.5,134.5C 536.505,129.208 536.172,123.875 536.5,118.5C 541.867,117.053 547.2,117.22 552.5,119C 553.787,122.125 553.787,125.291 552.5,128.5C 551.817,128.863 551.15,129.196 550.5,129.5 Z"/></g>
<g><path style="opacity:1" fill="#7c7c7c" d="M 309.5,127.5 C 309.5,129.833 309.5,132.167 309.5,134.5C 307.744,133.448 307.077,131.781 307.5,129.5C 301.5,129.5 295.5,129.5 289.5,129.5C 289.5,125.5 289.5,121.5 289.5,117.5C 290.5,117.5 291.5,117.5 292.5,117.5C 292.5,120.833 292.5,124.167 292.5,127.5C 296.167,127.5 299.833,127.5 303.5,127.5C 303.5,124.167 303.5,120.833 303.5,117.5C 304.5,117.5 305.5,117.5 306.5,117.5C 306.5,120.833 306.5,124.167 306.5,127.5C 307.5,127.5 308.5,127.5 309.5,127.5 Z"/></g>
<g><path style="opacity:1" fill="#f5f5f5" d="M 250.5,120.5 C 252.167,120.5 253.833,120.5 255.5,120.5C 255.5,122.833 255.5,125.167 255.5,127.5C 253.856,127.714 252.356,127.38 251,126.5C 250.505,124.527 250.338,122.527 250.5,120.5 Z"/></g>
<g><path style="opacity:1" fill="#bfbfbf" d="M 262.5,120.5 C 261.5,120.5 260.5,120.5 259.5,120.5C 259.5,122.5 259.5,124.5 259.5,126.5C 260.833,126.5 262.167,126.5 263.5,126.5C 262.081,127.451 260.415,127.784 258.5,127.5C 258.5,124.833 258.5,122.167 258.5,119.5C 260.099,119.232 261.432,119.566 262.5,120.5 Z"/></g>
<g><path style="opacity:1" fill="#fdfdfd" d="M 262.5,120.5 C 263.461,122.265 263.795,124.265 263.5,126.5C 262.167,126.5 260.833,126.5 259.5,126.5C 259.5,124.5 259.5,122.5 259.5,120.5C 260.5,120.5 261.5,120.5 262.5,120.5 Z"/></g>
<g><path style="opacity:1" fill="#eaeaea" d="M 464.5,120.5 C 466.833,120.5 469.167,120.5 471.5,120.5C 471.5,122.833 471.5,125.167 471.5,127.5C 468.833,127.5 466.167,127.5 463.5,127.5C 463.993,125.194 464.326,122.861 464.5,120.5 Z"/></g>
<g><path style="opacity:1" fill="#eaeaea" d="M 521.5,119.5 C 524.5,119.5 527.5,119.5 530.5,119.5C 530.5,120.5 530.5,121.5 530.5,122.5C 527.102,122.82 523.768,122.487 520.5,121.5C 520.863,120.817 521.196,120.15 521.5,119.5 Z"/></g>
<g><path style="opacity:1" fill="#fcfcfc" d="M 539.5,120.5 C 542.833,120.5 546.167,120.5 549.5,120.5C 549.5,122.5 549.5,124.5 549.5,126.5C 546.167,126.5 542.833,126.5 539.5,126.5C 539.5,124.5 539.5,122.5 539.5,120.5 Z"/></g>
<g><path style="opacity:1" fill="#f4f4f4" d="M 334.5,124.5 C 337.5,124.5 340.5,124.5 343.5,124.5C 343.5,125.5 343.5,126.5 343.5,127.5C 340.5,127.5 337.5,127.5 334.5,127.5C 334.5,126.5 334.5,125.5 334.5,124.5 Z"/></g>
<g><path style="opacity:1" fill="#c0c0c0" d="M 400.5,125.5 C 397.167,125.5 393.833,125.5 390.5,125.5C 390.768,127.099 390.434,128.432 389.5,129.5C 389.5,127.833 389.5,126.167 389.5,124.5C 393.371,124.185 397.038,124.518 400.5,125.5 Z"/></g>
<g><path style="opacity:1" fill="#eeeeee" d="M 409.5,123.5 C 412.833,123.5 416.167,123.5 419.5,123.5C 419.5,124.833 419.5,126.167 419.5,127.5C 416.167,127.5 412.833,127.5 409.5,127.5C 409.5,126.167 409.5,124.833 409.5,123.5 Z"/></g>
<g><path style="opacity:1" fill="#c2c2c4" d="M 100.5,126.5 C 118.17,126.333 135.836,126.5 153.5,127C 156.63,134.72 160.13,142.22 164,149.5C 164.667,150.5 164.667,151.5 164,152.5C 140.067,172.817 113.234,177.651 83.5,167C 82.9781,166.439 82.6448,165.772 82.5,165C 88.3585,152.115 94.3585,139.282 100.5,126.5 Z"/></g>
<g><path style="opacity:1" fill="#e1e1e1" d="M 371.5,123.5 C 374.833,123.5 378.167,123.5 381.5,123.5C 381.5,124.833 381.5,126.167 381.5,127.5C 378.167,127.5 374.833,127.5 371.5,127.5C 371.5,126.167 371.5,124.833 371.5,123.5 Z"/></g>
<g><path style="opacity:1" fill="#bcbcbc" d="M 539.5,120.5 C 539.5,122.5 539.5,124.5 539.5,126.5C 542.833,126.5 546.167,126.5 549.5,126.5C 546.038,127.482 542.371,127.815 538.5,127.5C 538.198,124.941 538.532,122.607 539.5,120.5 Z"/></g>
<g><path style="opacity:1" fill="#d5d5d5" d="M 312.5,117.5 C 312.5,121.5 312.5,125.5 312.5,129.5C 313.833,129.5 315.167,129.5 316.5,129.5C 315.081,130.451 313.415,130.784 311.5,130.5C 311.771,132.38 311.104,133.713 309.5,134.5C 309.5,132.167 309.5,129.833 309.5,127.5C 311.119,124.452 312.119,121.119 312.5,117.5 Z"/></g>
<g><path style="opacity:1" fill="#d2d2d2" d="M 479.5,117.5 C 479.5,121.167 479.5,124.833 479.5,128.5C 478.539,130.265 478.205,132.265 478.5,134.5C 477.167,134.5 475.833,134.5 474.5,134.5C 474.5,133.167 474.5,131.833 474.5,130.5C 469.833,130.5 465.167,130.5 460.5,130.5C 460.5,131.833 460.5,133.167 460.5,134.5C 459.209,134.737 458.209,134.404 457.5,133.5C 459.176,132.817 459.843,131.483 459.5,129.5C 464.833,129.5 470.167,129.5 475.5,129.5C 475.238,130.978 475.571,132.311 476.5,133.5C 477.466,131.604 477.799,129.604 477.5,127.5C 476.5,127.5 475.5,127.5 474.5,127.5C 474.5,124.5 474.5,121.5 474.5,118.5C 475.473,120.948 475.806,123.615 475.5,126.5C 476.5,126.5 477.5,126.5 478.5,126.5C 478.19,123.287 478.523,120.287 479.5,117.5 Z"/></g>
<g><path style="opacity:1" fill="#bebebe" d="M 536.5,118.5 C 536.172,123.875 536.505,129.208 537.5,134.5C 538.452,132.955 538.785,131.288 538.5,129.5C 542.5,129.5 546.5,129.5 550.5,129.5C 547.038,130.482 543.371,130.815 539.5,130.5C 539.5,132.167 539.5,133.833 539.5,135.5C 538.167,135.5 536.833,135.5 535.5,135.5C 535.178,129.642 535.511,123.975 536.5,118.5 Z"/></g>
</svg>
