<svg width="198" height="58" viewBox="0 0 198 58" fill="none" xmlns="http://www.w3.org/2000/svg">
<g clip-path="url(#clip0_5_783)">
<path d="M35.3027 7.27965C41.2103 20.137 47.1655 32.9944 53.1208 45.9463C53.3113 45.7572 53.4543 45.6154 53.5972 45.4736C55.36 42.8265 56.6463 40.0376 57.5038 36.9651C58.2661 34.2707 58.6472 31.529 58.552 28.7874C58.409 22.4532 56.4081 16.6863 52.5491 11.6285C50.2623 8.60321 47.4514 6.14518 44.2117 4.20712C41.6867 2.69449 38.9711 1.51274 36.0173 0.898235C35.5409 0.803696 35.0645 0.709156 34.5881 0.614617C34.2546 0.520077 34.064 0.661887 33.9211 0.945505C32.6824 3.35626 31.4437 5.76702 30.205 8.22505C28.0611 12.4321 25.9172 16.5918 23.821 20.7988C22.2011 23.9659 20.5813 27.1802 18.9615 30.3473C17.0558 34.0816 15.1501 37.8632 13.1968 41.5975C11.8152 44.3391 10.4336 47.0808 9.00431 49.8224C8.7661 50.2951 8.81375 50.5788 9.24252 50.9096C10.1001 51.5714 10.9576 52.2805 11.7675 52.9422C12.0534 53.1786 12.1963 53.1313 12.3869 52.8004C13.7685 50.0588 15.1025 47.3171 16.4841 44.5755C18.3898 40.7467 20.3431 36.8705 22.2488 33.0417C24.1545 29.1656 26.1078 25.3367 28.0135 21.4606C30.0621 17.3954 32.1107 13.3302 34.1116 9.21772C34.4451 8.55594 34.731 7.94143 35.0645 7.27965C35.2074 7.27965 35.255 7.27965 35.3027 7.27965Z" fill="#262626"/>
<path d="M5.4312 46.088C5.81233 45.379 6.14583 44.7172 6.52696 44.0082C9.09963 38.903 11.6723 33.7979 14.245 28.74C16.4841 24.2967 18.6757 19.8533 20.9148 15.41C23.154 10.9193 25.4408 6.42871 27.68 1.89082C27.9182 1.46539 28.1564 0.992691 28.347 0.567263C28.5375 0.141835 28.4423 -0.0472436 27.9658 0.0472959C26.2031 0.283645 24.3927 0.425454 22.6299 0.803612C18.0087 1.79628 13.9591 3.87615 10.3383 6.85414C6.71753 9.83214 4.00194 13.5192 2.1439 17.8207C1.04814 20.3733 0.333507 23.0204 1.35899e-05 25.762C-0.285838 28.551 -0.285838 31.2926 0.190581 34.0815C0.809927 37.7686 2.09626 41.172 4.00194 44.3391C4.28779 44.859 4.62128 45.3317 4.95478 45.8044C5.05006 45.9462 5.0977 46.088 5.14535 46.2299C5.28827 46.1826 5.38356 46.1353 5.4312 46.088Z" fill="#262626"/>
<path d="M48.166 49.4914C46.7844 46.5134 45.4028 43.4882 44.0212 40.4629H24.5356C23.3922 42.7318 22.2011 45.0008 21.1054 47.317C19.8667 49.8223 18.7233 52.3749 17.5322 54.9274C17.1987 55.6365 17.294 55.731 18.0086 55.9674C19.5332 56.4401 21.0101 57.0073 22.5823 57.3382C25.4408 58 28.347 58.1891 31.3008 57.8582C32.6347 57.7164 33.9687 57.6218 35.255 57.2909C37.1607 56.771 39.0664 56.1092 40.9244 55.3056C43.5447 54.1711 45.8316 52.5167 47.9278 50.6732C48.2613 50.2477 48.4042 50.0114 48.166 49.4914Z" fill="#C2C2C4"/>
<path d="M41.6391 35.2161C40.591 32.8527 39.4952 30.5364 38.4471 28.173C37.3513 25.8095 36.3032 23.4932 35.2074 21.1298C35.1121 20.8934 34.9692 20.6571 34.7787 20.3262C34.3022 21.2243 33.9211 21.9806 33.54 22.7369C33.1588 23.4932 32.7777 24.2968 32.3489 25.0531C30.6338 28.4566 28.9187 31.86 27.2036 35.2161H41.6391Z" fill="#CA0100"/>
<path d="M79.7526 14.7944C80.7055 14.7944 81.2772 15.0781 81.8489 16.1653L87.8994 27.0846C88.0423 27.3209 87.9947 27.51 87.6612 27.51H85.3267C85.0885 27.51 84.9933 27.4627 84.898 27.2737L83.6116 24.9102H74.9884L73.7021 27.2737C73.6068 27.4627 73.5115 27.51 73.2733 27.51H70.8912C70.5577 27.51 70.5101 27.3209 70.653 27.0846L76.6559 16.1653C77.2753 15.0781 77.7993 14.7944 78.5616 14.7944H79.7526V14.7944ZM76.1795 22.8303H82.4682L79.5621 17.4888C79.5144 17.3943 79.4668 17.347 79.3715 17.347H79.2762C79.1809 17.347 79.1333 17.3943 79.0856 17.4888L76.1795 22.8303Z" fill="#262626"/>
<path d="M100.572 14.7953C103.097 14.7953 104.05 15.788 104.05 17.7733V18.6242C104.05 19.6641 103.669 20.4204 102.859 20.9404C103.717 21.4131 104.145 22.2167 104.145 23.3039V24.3438C104.145 26.2819 103.335 27.5109 100.906 27.5109H89.9957C89.6145 27.5109 89.424 27.3218 89.424 26.9436V15.3153C89.424 14.9371 89.6145 14.748 89.9957 14.748H100.572V14.7953V14.7953ZM92.2825 20.0895H99.8099C101.001 20.0895 101.382 19.7114 101.382 19.0023V18.3878C101.382 17.6315 101.001 17.3006 100.048 17.3006H92.5683C92.4254 17.3006 92.3301 17.3952 92.3301 17.537L92.2825 20.0895ZM92.2825 22.0749V24.7692C92.2825 24.911 92.3778 25.0056 92.5207 25.0056H100.048C101.001 25.0056 101.382 24.6747 101.382 23.9184V23.2093C101.382 22.453 101.001 22.0749 99.8099 22.0749H92.2825V22.0749Z" fill="#262626"/>
<path d="M119.534 14.7953C119.82 14.7953 119.915 14.9371 119.915 15.1735V16.9697C119.915 17.2533 119.772 17.3952 119.534 17.3952H111.387C109.481 17.3952 108.957 17.9624 108.957 19.8532V22.453C108.957 24.3911 109.529 24.9583 111.387 24.9583H119.534C119.82 24.9583 119.915 25.1001 119.915 25.3365V27.1327C119.915 27.4163 119.772 27.5109 119.534 27.5109H111.292C107.576 27.5109 106.146 26.1873 106.146 22.6894V19.5696C106.146 16.0716 107.576 14.748 111.292 14.748L119.534 14.7953Z" fill="#262626"/>
<path d="M136.208 14.7954C137.161 14.7954 137.733 15.079 138.305 16.1662L144.355 27.0855C144.498 27.3219 144.45 27.511 144.117 27.511H141.782C141.544 27.511 141.449 27.4637 141.354 27.2746L140.067 24.9111H131.444L130.158 27.2746C130.063 27.4637 129.967 27.511 129.729 27.511H127.347C127.013 27.511 126.966 27.3219 127.109 27.0855L133.207 16.2135C133.826 15.1263 134.35 14.8427 135.113 14.8427H136.208V14.7954V14.7954ZM132.635 22.8313H138.924L136.018 17.4898C135.97 17.3952 135.923 17.348 135.827 17.348H135.732C135.637 17.348 135.589 17.3952 135.541 17.4898L132.635 22.8313Z" fill="#262626"/>
<path d="M147.547 14.7954C147.833 14.7954 147.928 14.9372 147.928 15.1736V22.4531C147.928 24.3912 148.5 24.9584 150.358 24.9584H155.456C157.361 24.9584 157.885 24.3912 157.885 22.4531V15.1736C157.885 14.8899 158.028 14.7954 158.267 14.7954H160.268C160.553 14.7954 160.649 14.9372 160.649 15.1736V22.6895C160.649 26.1874 159.219 27.511 155.503 27.511H150.215C146.499 27.511 145.07 26.1874 145.07 22.6895V15.1736C145.07 14.8899 145.213 14.7954 145.499 14.7954H147.547Z" fill="#262626"/>
<path d="M177.038 14.7954C177.323 14.7954 177.466 14.9372 177.466 15.1736V16.9698C177.466 17.2534 177.323 17.3952 177.038 17.3952H171.273V27.1328C171.273 27.4164 171.13 27.511 170.892 27.511H168.891C168.605 27.511 168.51 27.3692 168.51 27.1328V17.3952H162.745C162.459 17.3952 162.316 17.2534 162.316 16.9698V15.1736C162.316 14.8899 162.459 14.7954 162.745 14.7954H177.038Z" fill="#262626"/>
<path d="M189.377 14.7954C193.093 14.7954 194.522 16.119 194.522 19.6169V22.7367C194.522 26.2347 193.093 27.5582 189.377 27.5582H183.707C179.991 27.5582 178.562 26.2347 178.562 22.7367V19.6169C178.562 16.119 179.991 14.7954 183.707 14.7954H189.377V14.7954ZM181.373 22.5477C181.373 24.4384 181.945 25.0057 183.803 25.0057H189.234C191.14 25.0057 191.664 24.4384 191.664 22.5477V19.806C191.664 17.9152 191.092 17.348 189.234 17.348H183.803C181.897 17.348 181.373 17.9152 181.373 19.806V22.5477Z" fill="#262626"/>
<path d="M76.1795 35.8779C77.9423 35.8779 78.5616 36.4924 78.5616 38.1469V39.6122C78.5616 41.2667 77.8946 41.8812 76.1795 41.8812H73.5116C71.7964 41.8812 71.1295 41.2667 71.1295 39.6122V38.1469C71.1295 36.4924 71.7964 35.8779 73.5116 35.8779H76.1795ZM72.4634 39.5177C72.4634 40.4158 72.7016 40.6522 73.6068 40.6522H76.1319C77.0371 40.6522 77.2753 40.3686 77.2753 39.5177V38.2414C77.2753 37.3433 77.0371 37.1069 76.1319 37.1069H73.6068C72.7016 37.1069 72.4634 37.3906 72.4634 38.2414V39.5177Z" fill="#737373"/>
<path d="M83.7546 35.4521C83.8975 35.4521 83.9451 35.4994 83.9451 35.6412V37.1539H85.0409C86.5654 37.1539 87.0895 37.6266 87.0895 38.9028V40.1319C87.0895 41.3609 86.6131 41.8336 85.0409 41.8336H83.9451V43.5353C83.9451 43.6771 83.8975 43.7244 83.7546 43.7244H82.897C82.7541 43.7244 82.7064 43.6771 82.7064 43.5353V41.8336H81.6107C80.0861 41.8336 79.5621 41.3609 79.5621 40.1319V38.9028C79.5621 37.6738 80.0385 37.1539 81.6107 37.1539H82.7064V35.6412C82.7064 35.4994 82.7541 35.4521 82.897 35.4521H83.7546ZM80.8008 39.9428C80.8008 40.6518 80.9913 40.8882 81.7536 40.8882H82.7541V38.1938H81.7536C81.039 38.1938 80.8008 38.4301 80.8008 39.1392V39.9428ZM83.9451 38.1938V40.8882H84.9456C85.7079 40.8882 85.8985 40.6518 85.8985 39.9428V39.1392C85.8985 38.4301 85.7079 38.1938 84.9456 38.1938H83.9451Z" fill="#737373"/>
<path d="M89.0905 37.2012C89.2334 37.2012 89.281 37.2484 89.281 37.3903V40.6519C89.281 40.6991 89.3287 40.7464 89.3287 40.7464H89.424C89.4716 40.7464 89.5193 40.7464 89.5193 40.6991L92.0919 37.7211C92.3778 37.343 92.5683 37.2012 93.14 37.2012H93.6165C94.1405 37.2012 94.3787 37.3903 94.3787 38.0993V41.6918C94.3787 41.8336 94.3311 41.8809 94.1882 41.8809H93.3306C93.1877 41.8809 93.14 41.8336 93.14 41.6918V38.4302C93.14 38.3829 93.14 38.3356 93.0924 38.3356H92.9971C92.9495 38.3356 92.9018 38.3356 92.9018 38.3829L90.3292 41.3609C89.9957 41.7391 89.8527 41.8809 89.281 41.8809H88.8046C88.2806 41.8809 88.0424 41.6918 88.0424 40.9828V37.3903C88.0424 37.2484 88.09 37.2012 88.2329 37.2012H89.0905Z" fill="#737373"/>
<path d="M96.5226 37.2012C96.6655 37.2012 96.7132 37.2484 96.7132 37.3903V40.6991C96.7132 40.8409 96.7608 40.8882 96.9037 40.8882H100.62V37.4375C100.62 37.2957 100.667 37.2484 100.81 37.2484H101.668C101.811 37.2484 101.859 37.2957 101.859 37.4375V40.8882H103.002C103.145 40.8882 103.192 40.9355 103.192 41.0773V43.299C103.192 43.4408 103.145 43.4881 103.002 43.4881H102.335C102.192 43.4881 102.144 43.4408 102.144 43.299V41.8809H96.332C95.7603 41.8809 95.5221 41.6445 95.5221 41.1718V37.4375C95.5221 37.2957 95.5698 37.2484 95.7127 37.2484L96.5226 37.2012Z" fill="#737373"/>
<path d="M104.955 37.2012C105.098 37.2012 105.146 37.2484 105.146 37.3903V40.6519C105.146 40.6991 105.193 40.7464 105.193 40.7464H105.289C105.336 40.7464 105.384 40.7464 105.384 40.6991L107.957 37.7211C108.243 37.343 108.433 37.2012 109.005 37.2012H109.481C110.005 37.2012 110.244 37.3903 110.244 38.0993V41.6918C110.244 41.8336 110.196 41.8809 110.053 41.8809H109.195C109.052 41.8809 109.005 41.8336 109.005 41.6918V38.4302C109.005 38.3829 109.005 38.3356 108.957 38.3356H108.91C108.862 38.3356 108.814 38.3356 108.814 38.3829L106.242 41.3609C105.908 41.7391 105.765 41.8809 105.193 41.8809H104.717C104.193 41.8809 103.955 41.6918 103.955 40.9828V37.3903C103.955 37.2484 104.002 37.2012 104.145 37.2012H104.955Z" fill="#737373"/>
<path d="M115.151 37.2012C116.675 37.2012 117.199 37.6739 117.199 38.9502V41.2191C117.199 41.7863 117.056 41.8809 116.58 41.8809H112.483C111.482 41.8809 111.149 41.5027 111.149 40.6519V40.2264C111.149 39.5174 111.435 39.092 112.483 39.092H115.961V38.9502C115.961 38.3829 115.77 38.1938 115.008 38.1938H111.435C111.339 38.1938 111.292 38.1466 111.292 38.052V37.343C111.292 37.2484 111.339 37.2012 111.435 37.2012H115.151ZM115.961 40.6046V39.8483H112.816C112.483 39.8483 112.34 39.9901 112.34 40.2737V40.4628C112.34 40.7464 112.483 40.8882 112.816 40.8882H115.722C115.913 40.9355 115.961 40.8409 115.961 40.6046Z" fill="#737373"/>
<path d="M123.345 37.2016C123.869 37.2016 124.06 37.4379 124.06 37.8633V41.6449C124.06 41.7867 124.012 41.834 123.869 41.834H123.012C122.869 41.834 122.821 41.7867 122.821 41.6449V38.3833C122.821 38.2888 122.773 38.2415 122.678 38.2415H120.82C120.629 38.2415 120.629 38.336 120.582 38.4306C120.487 38.9033 120.344 40.2741 120.01 41.0304C119.772 41.5504 119.486 41.834 118.771 41.834H117.962C117.866 41.834 117.771 41.7867 117.771 41.6449V41.0304C117.771 40.8886 117.819 40.8413 117.962 40.8413H118.581C118.819 40.8413 119.01 40.7941 119.2 40.3214C119.391 39.8487 119.534 38.9978 119.677 37.7215C119.724 37.3906 119.867 37.1543 120.391 37.1543H123.345V37.2016Z" fill="#737373"/>
<path d="M126.156 37.2012C126.299 37.2012 126.347 37.2484 126.347 37.3903V38.6193H129.586C130.777 38.6193 131.254 39.092 131.254 39.9428V40.5101C131.254 41.4082 130.777 41.8336 129.586 41.8336H125.346C125.203 41.8336 125.108 41.7391 125.108 41.5973V37.3903C125.108 37.2484 125.155 37.2012 125.298 37.2012H126.156ZM126.347 39.5174V40.7937C126.347 40.8409 126.394 40.8882 126.442 40.8882H129.348C129.872 40.8882 130.063 40.6991 130.063 40.3682V40.0374C130.063 39.6592 129.872 39.5174 129.348 39.5174H126.347Z" fill="#737373"/>
<path d="M133.255 37.2012C133.398 37.2012 133.445 37.2484 133.445 37.3903V38.9974H137.352V37.3903C137.352 37.2484 137.399 37.2012 137.542 37.2012H138.4C138.543 37.2012 138.59 37.2484 138.59 37.3903V41.6918C138.59 41.8336 138.543 41.8809 138.4 41.8809H137.542C137.399 41.8809 137.352 41.8336 137.352 41.6918V39.9901H133.445V41.6918C133.445 41.8336 133.398 41.8809 133.255 41.8809H132.397C132.254 41.8809 132.206 41.8336 132.206 41.6918V37.3903C132.206 37.2484 132.254 37.2012 132.397 37.2012H133.255Z" fill="#737373"/>
<path d="M140.687 37.2012C140.83 37.2012 140.877 37.2484 140.877 37.3903V38.6193H144.117C145.308 38.6193 145.784 39.092 145.784 39.9428V40.5101C145.784 41.4082 145.308 41.8336 144.117 41.8336H139.877C139.734 41.8336 139.639 41.7391 139.639 41.5973V37.3903C139.639 37.2484 139.686 37.2012 139.829 37.2012H140.687ZM140.877 39.5174V40.7937C140.877 40.8409 140.925 40.8882 140.973 40.8882H143.879C144.403 40.8882 144.593 40.6991 144.593 40.3682V40.0374C144.593 39.6592 144.403 39.5174 143.879 39.5174H140.877ZM147.5 37.2012C147.642 37.2012 147.69 37.2484 147.69 37.3903V41.6918C147.69 41.8336 147.642 41.8809 147.5 41.8809H146.642C146.499 41.8809 146.451 41.8336 146.451 41.6918V37.3903C146.451 37.2484 146.499 37.2012 146.642 37.2012H147.5Z" fill="#737373"/>
<path d="M149.786 37.2014C149.929 37.2014 149.977 37.2486 149.977 37.3904V40.6521C149.977 40.6993 150.025 40.7466 150.025 40.7466H150.12C150.167 40.7466 150.215 40.7466 150.215 40.6993L152.788 37.7213C153.074 37.3432 153.264 37.2014 153.836 37.2014H154.312C154.836 37.2014 155.075 37.3904 155.075 38.0995V41.692C155.075 41.8338 155.027 41.8811 154.884 41.8811H154.026C153.884 41.8811 153.836 41.8338 153.836 41.692V38.4304C153.836 38.3831 153.836 38.3358 153.788 38.3358H153.693C153.645 38.3358 153.598 38.3358 153.598 38.3831L151.025 41.3611C150.692 41.7393 150.549 41.8811 149.977 41.8811H149.5C148.976 41.8811 148.738 41.692 148.738 40.9829V37.3904C148.738 37.2486 148.786 37.2014 148.929 37.2014H149.786ZM149.882 35.2633C149.882 35.1688 149.929 35.0742 150.025 35.0742C150.072 35.0742 150.167 35.1215 150.263 35.1688C150.453 35.3106 151.073 35.8305 151.93 35.8305C152.788 35.8305 153.407 35.3106 153.598 35.1688C153.693 35.1215 153.741 35.0742 153.788 35.0742C153.884 35.0742 153.931 35.1688 153.931 35.2633V35.6887C153.931 35.8305 153.931 35.9251 153.788 36.0196C153.502 36.256 152.692 36.6341 151.883 36.6341C151.073 36.6341 150.31 36.3032 149.977 36.0196C149.834 35.8778 149.786 35.7833 149.786 35.6887V35.2633H149.882Z" fill="#737373"/>
<path d="M164.46 37.2016C164.984 37.2016 165.175 37.4379 165.175 37.8633V40.8413H166.318C166.461 40.8413 166.509 40.8886 166.509 41.0304V43.2521C166.509 43.3939 166.461 43.4412 166.318 43.4412H165.603C165.461 43.4412 165.413 43.3939 165.413 43.2521V41.834H159.791V43.2521C159.791 43.3939 159.744 43.4412 159.601 43.4412H158.934C158.791 43.4412 158.743 43.3939 158.743 43.2521V41.0304C158.743 40.8886 158.791 40.8413 158.934 40.8413H159.648C159.886 40.8413 160.077 40.7941 160.268 40.3214C160.458 39.8487 160.601 38.9978 160.744 37.7215C160.792 37.3906 160.935 37.1543 161.459 37.1543H164.46V37.2016ZM163.936 40.8413V38.3833C163.936 38.2888 163.888 38.2415 163.793 38.2415H161.935C161.744 38.2415 161.744 38.336 161.697 38.4306C161.649 38.9033 161.459 40.0378 161.22 40.8413H163.936Z" fill="#737373"/>
<path d="M168.271 37.2012C168.414 37.2012 168.462 37.2484 168.462 37.3903V40.6519C168.462 40.6991 168.51 40.7464 168.51 40.7464H168.605C168.653 40.7464 168.7 40.7464 168.7 40.6991L171.273 37.7211C171.559 37.343 171.749 37.2012 172.321 37.2012H172.797C173.321 37.2012 173.56 37.3903 173.56 38.0993V41.6918C173.56 41.8336 173.512 41.8809 173.369 41.8809H172.512C172.369 41.8809 172.321 41.8336 172.321 41.6918V38.4302C172.321 38.3829 172.321 38.3356 172.273 38.3356H172.178C172.13 38.3356 172.083 38.3356 172.083 38.3829L169.51 41.3609C169.177 41.7391 169.034 41.8809 168.462 41.8809H167.986C167.461 41.8809 167.223 41.6918 167.223 40.9828V37.3903C167.223 37.2484 167.271 37.2012 167.414 37.2012H168.271Z" fill="#737373"/>
<path d="M179.848 37.2016C180.372 37.2016 180.563 37.4379 180.563 37.8633V41.6449C180.563 41.7867 180.515 41.834 180.372 41.834H179.515C179.372 41.834 179.324 41.7867 179.324 41.6449V38.3833C179.324 38.2888 179.277 38.2415 179.181 38.2415H177.323C177.133 38.2415 177.133 38.336 177.085 38.4306C176.99 38.9033 176.847 40.2741 176.513 41.0304C176.275 41.5504 175.989 41.834 175.275 41.834H174.465C174.37 41.834 174.274 41.7867 174.274 41.6449V41.0304C174.274 40.8886 174.322 40.8413 174.465 40.8413H175.084C175.322 40.8413 175.513 40.7941 175.704 40.3214C175.894 39.8487 176.037 38.9978 176.18 37.7215C176.228 37.3906 176.371 37.1543 176.895 37.1543H179.848V37.2016Z" fill="#737373"/>
<path d="M186.042 37.2016C187.233 37.2016 187.519 37.5797 187.519 38.6197V39.4232C187.519 39.8014 187.376 39.8959 187.042 39.8959H182.707V40.085C182.707 40.605 182.898 40.8413 183.66 40.8413H187.233C187.328 40.8413 187.376 40.8886 187.376 40.9831V41.6922C187.376 41.7867 187.328 41.834 187.233 41.834H183.517C181.992 41.834 181.468 41.3613 181.468 40.1323V38.9033C181.468 37.6743 181.945 37.1543 183.517 37.1543L186.042 37.2016ZM182.707 39.0924H186.185C186.28 39.0924 186.328 39.0451 186.328 38.9505V38.5724C186.328 38.2415 186.185 38.0997 185.804 38.0997H183.66C182.898 38.0997 182.707 38.336 182.707 38.856V39.0924Z" fill="#737373"/>
<path d="M192.855 37.2016C194.379 37.2016 194.903 37.6743 194.903 38.9505V40.1796C194.903 41.4086 194.427 41.8813 192.855 41.8813H189.615V43.583C189.615 43.7248 189.567 43.7721 189.424 43.7721H188.567C188.424 43.7721 188.376 43.7248 188.376 43.583V38.9033C188.376 37.6743 188.853 37.1543 190.425 37.1543L192.855 37.2016ZM189.615 40.8413H192.712C193.474 40.8413 193.665 40.605 193.665 39.8959V39.1396C193.665 38.4306 193.474 38.1942 192.712 38.1942H190.568C189.853 38.1942 189.615 38.4306 189.615 39.1396V40.8413Z" fill="#737373"/>
</g>
<defs>
<clipPath id="clip0_5_783">
<rect width="198" height="58" fill="white"/>
</clipPath>
</defs>
</svg>
